# xmcd
#
# Track frame offsets: 
#        150
#        24508
#        39921
#        63118
#        87728
#        120862
#        137069
#        155025
#        187528
#
# Disc length: 2984 seconds
#
# Revision: 0
# Processed by: cddbd v1.5.2PL0 Copyright (c) Steve Scherf et al.
# Submitted via: ExactAudioCopyFreeDBPlugin 1.0
#
DISCID=660ba609
DTITLE=nick's noise  - sounds like music?
DYEAR=1997
DGENRE=Blues
TTITLE0=over
TTITLE1=reaching out
TTITLE2=into the moonlight again
TTITLE3=you came into my life
TTITLE4=lava
TTITLE5=sambathing
TTITLE6=colours
TTITLE7=won´t you
TTITLE8=name it and i go
EXTD=
EXTT0=
EXTT1=
EXTT2=
EXTT3=
EXTT4=
EXTT5=
EXTT6=
EXTT7=
EXTT8=
PLAYORDER=
